 <svg width="96" height="96" viewBox="0 0 480 480" fill="none" xmlns="http://www.w3.org/2000/svg">
<path d="M342.383 480C294.505 480 258.517 468.096 234.417 444.288C210.639 420.14 198.75 381.537 198.75 328.48C198.75 276.442 211.924 238.52 238.273 214.712C264.622 190.904 299.486 179 342.865 179C434.122 179 479.75 227.126 479.75 323.378C479.75 372.014 468.504 410.277 446.011 438.166C423.839 466.055 389.297 480 342.383 480ZM340.455 419.8C349.452 419.8 357.003 418.27 363.108 415.208C369.214 411.807 374.034 406.025 377.568 397.863C384.316 383.918 387.69 361.131 387.69 329.5C387.69 298.55 384.316 276.102 377.568 262.158C370.82 247.873 358.449 240.39 340.455 239.71C333.707 239.71 326.638 240.56 319.247 242.261C312.178 243.621 307.68 245.662 305.752 248.383C301.896 253.145 298.843 263.348 296.594 278.993C294.666 294.298 293.702 311.134 293.702 329.5C293.702 358.07 296.273 378.986 301.414 392.251C304.948 402.114 309.929 409.257 316.355 413.678C322.782 417.759 330.815 419.8 340.455 419.8Z" fill="#38588F"/>
<path d="M185.21 236.553H104.303L89.6807 303H0L89.6807 0H204.219L290 303H199.832L185.21 236.553ZM144.269 65.3842L115.513 177.547H173.513L146.218 65.3842H144.269Z" fill="#38588F"/>
</svg>
